<?xml version="1.0" encoding="UTF-8" standalone="no"?>
<!-- Created with Inkscape (http://www.inkscape.org/) -->

<svg
   width="479.43436"
   height="398.43439"
   viewBox="0 0 126.85034 105.4191"
   version="1.1"
   id="svg1"
   xml:space="preserve"
   xmlns="http://www.w3.org/2000/svg"
   xmlns:svg="http://www.w3.org/2000/svg"><defs
     id="defs1"><style
       id="style1">.cls-1,.cls-2{fill:#4cbf56;stroke:#45993d;stroke-linecap:round;stroke-linejoin:round;}.cls-2{stroke-width:1.5px;}</style></defs><g
     id="layer1"
     transform="translate(-0.14965516,-1.3229167)"><rect
       style="opacity:1;fill:none;stroke:#808080;stroke-width:0.264583;stroke-linecap:round;stroke-linejoin:round;stroke-dasharray:none;stroke-opacity:1"
       id="rect1"
       width="126.43611"
       height="94.686111"
       x="0.28194684"
       y="11.923613"
       rx="2.0844781"
       ry="2.440701" /><g
       id="g1"
       transform="matrix(0.30238095,0,0,0.30238095,1.5875,3.7041667)"><path
         class="cls-1"
         d="m 0.75,2 a 6.44,6.44 0 0 1 7.69,0 v 0 a 6.44,6.44 0 0 0 7.69,0 v 10.4 a 6.44,6.44 0 0 1 -7.69,0 v 0 a 6.44,6.44 0 0 0 -7.69,0"
         id="path1" /><line
         class="cls-2"
         x1="0.75"
         y1="16.75"
         x2="0.75"
         y2="0.75"
         id="line1" /></g><g
       id="fullscreen"
       transform="matrix(0.37797619,0,0,0.37797619,119.85625,3.175)"
       style="fill:#575e75;fill-rule:evenodd;stroke:none;stroke-width:1"><path
         d="M 13.338093,4.3503526 12.448864,3.458832 9.3148351,5.8334274 C 8.9571379,6.1082571 8.4389784,6.0361981 8.1648553,5.6675241 c -0.2223071,-0.2966149 -0.2172927,-0.7055079 0,-0.9853649 L 10.533346,1.5400517 9.6658464,0.66864049 C 9.4167955,0.41894767 9.5939727,0.00502737 9.9349551,0.00502737 L 13.612216,0 C 13.824494,0.00502737 14,0.18098539 14,0.38878344 V 4.0805503 c 0,0.3418613 -0.417871,0.5144678 -0.661907,0.2698023"
         id="Fill-1" /><path
         d="M 0.66190699,9.6492883 1.5511356,10.540883 4.6851649,8.1660912 c 0.3576972,-0.2748524 0.8758567,-0.2011115 1.1499798,0.165917 0.2223071,0.2966394 0.2172927,0.7055661 0,0.9854462 l -2.3701619,3.1423666 0.8691708,0.871483 c 0.2490509,0.249714 0.071874,0.663668 -0.2691087,0.663668 L 0.38778389,14 C 0.17550564,13.994972 0,13.819 0,13.611185 V 9.9191129 C 0,9.5772234 0.41787057,9.4046027 0.66190699,9.6492883"
         id="Fill-3" /><path
         d="M 0.66190699,4.3503526 1.5511356,3.458832 4.6851649,5.8334274 c 0.3576972,0.2748297 0.8758567,0.2027707 1.1499798,-0.1659033 0.2223071,-0.2966149 0.2172927,-0.7055079 0,-0.9853649 L 3.4649828,1.5400517 4.3341536,0.66864049 C 4.5832045,0.41894767 4.4060273,0.00502737 4.0650449,0.00502737 L 0.38778389,0 C 0.17550564,0.00502737 0,0.18098539 0,0.38878344 V 4.0805503 c 0,0.3418613 0.41787057,0.5144678 0.66190699,0.2698023"
         id="Fill-5" /><path
         d="M 13.338093,9.6492883 12.448864,10.540883 9.3148351,8.1660912 C 8.9571379,7.8912388 8.4389784,7.9649797 8.1648553,8.3320082 c -0.2223071,0.2966394 -0.2172927,0.7055661 0,0.9854462 l 2.3684907,3.1423666 -0.8674996,0.871483 c -0.2490509,0.249714 -0.071874,0.663668 0.2691087,0.663668 L 13.612216,14 C 13.824494,13.994972 14,13.819 14,13.611185 V 9.9191129 C 14,9.5772234 13.582129,9.4046027 13.338093,9.6492883"
         id="Fill-7" /></g><polygon
       class="st0"
       points="4.3,0.5 9.7,0.5 13.5,4.3 13.5,9.7 9.7,13.5 4.3,13.5 0.5,9.7 0.5,4.3 "
       id="polygon1"
       transform="matrix(0.37797619,0,0,0.37797619,10.054167,3.7041667)" /><rect
       style="opacity:1;fill:none;stroke:#808080;stroke-width:0.275862;stroke-linecap:round;stroke-linejoin:round;stroke-dasharray:none;stroke-opacity:1"
       id="rect2"
       width="8.7199717"
       height="8.7199717"
       x="118.1421"
       y="1.4608476"
       rx="1.042628"
       ry="1.0426279" /></g><style
     type="text/css"
     id="style1-1">
	.st0{fill:#EC5959;stroke:#B84848;stroke-linecap:round;stroke-linejoin:round;stroke-miterlimit:10;}
</style></svg>
